<?xml version="1.0" encoding="utf-8"?>
<!-- Generator: Adobe Illustrator 18.1.1, SVG Export Plug-In . SVG Version: 6.00 Build 0)  -->
<!DOCTYPE svg PUBLIC "-//W3C//DTD SVG 1.1//EN" "http://www.w3.org/Graphics/SVG/1.1/DTD/svg11.dtd">
<svg version="1.1" id="Layer_1" xmlns="http://www.w3.org/2000/svg" xmlns:xlink="http://www.w3.org/1999/xlink" x="0px" y="0px"
	 width="183.1px" height="39.2px" viewBox="0 0 183.1 39.2" enable-background="new 0 0 183.1 39.2" xml:space="preserve">
<g>
	<g>
		<path fill="#2FC1B0" d="M0,10.2h4.4v2.9c0.9-1.1,1.8-2,2.9-2.6c1.1-0.6,2.4-0.9,3.8-0.9c1.5,0,2.7,0.3,3.8,0.8
			c1.1,0.5,2,1.3,2.7,2.2s1.3,2.1,1.6,3.5c0.4,1.3,0.5,2.8,0.5,4.5c0,1.7-0.2,3.2-0.6,4.6c-0.4,1.4-1,2.5-1.8,3.5
			c-0.8,1-1.7,1.7-2.9,2.2c-1.1,0.5-2.4,0.8-3.8,0.8c-1.1,0-2.2-0.2-3.3-0.6c-1.1-0.4-2.1-1.2-3-2.3v10.1H0V10.2z M4.5,21
			c0,1.4,0.1,2.5,0.4,3.4c0.3,0.9,0.7,1.6,1.2,2.1c0.5,0.5,1.1,0.9,1.7,1.1C8.5,27.9,9.2,28,9.9,28c0.7,0,1.4-0.1,2.1-0.4
			s1.2-0.7,1.7-1.3c0.5-0.6,0.9-1.3,1.1-2.3c0.3-0.9,0.4-2.1,0.4-3.4c0-1.4-0.1-2.5-0.4-3.4c-0.3-0.9-0.7-1.7-1.1-2.2
			c-0.5-0.6-1-1-1.6-1.2c-0.6-0.2-1.3-0.4-1.9-0.4c-1.6,0-3,0.5-4,1.6C5,16,4.5,17.7,4.5,20V21z"/>
		<path fill="#2FC1B0" d="M32,31.7c-3.2,0-5.7-1-7.5-2.9c-1.8-1.9-2.7-4.7-2.7-8.1c0-1.7,0.2-3.2,0.7-4.6s1.2-2.5,2.1-3.5
			c0.9-1,2-1.7,3.3-2.2C29,9.8,30.5,9.6,32,9.6c1.6,0,3,0.3,4.3,0.8c1.3,0.5,2.3,1.2,3.2,2.2c0.9,0.9,1.6,2.1,2,3.5
			c0.5,1.4,0.7,2.9,0.7,4.6c0,1.7-0.2,3.3-0.7,4.7c-0.5,1.4-1.2,2.5-2.1,3.5c-0.9,1-2,1.7-3.2,2.2C35,31.4,33.6,31.7,32,31.7z
			 M32,28c1.9,0,3.3-0.7,4.2-2c0.9-1.3,1.3-3.1,1.3-5.4c0-2.3-0.4-4.1-1.3-5.4c-0.9-1.3-2.3-2-4.2-2c-1.9,0-3.3,0.7-4.2,2
			c-0.9,1.3-1.4,3.1-1.4,5.3c0,2.3,0.4,4.1,1.3,5.4C28.7,27.3,30.1,28,32,28z"/>
		<path fill="#2FC1B0" d="M44.8,2.5h4.6V31h-4.6V2.5z"/>
		<path fill="#2FC1B0" d="M54.8,34.7c0.3,0.1,0.7,0.2,1.1,0.3c0.4,0.1,0.8,0.1,1.2,0.1c0.8,0,1.4-0.2,1.9-0.6
			c0.5-0.4,0.9-1.1,1.3-2.2l0.8-2l-8.8-20.1h5.3l5.7,15l5.2-15h5l-8.7,22.1c-0.4,1.1-0.8,2-1.2,2.8c-0.4,0.8-0.8,1.5-1.3,2
			c-0.5,0.5-1.1,1-1.8,1.2c-0.7,0.3-1.5,0.4-2.6,0.4c-0.7,0-1.3,0-1.9-0.1c-0.6-0.1-1.2-0.2-1.9-0.5L54.8,34.7z"/>
		<path fill="#2FC1B0" d="M79.6,32.6c0.2,1.2,0.7,2,1.5,2.4c0.7,0.4,1.9,0.6,3.4,0.6c1.1,0,1.9-0.2,2.6-0.5c0.7-0.3,1.2-0.8,1.5-1.4
			c0.4-0.6,0.6-1.4,0.7-2.2c0.1-0.9,0.2-1.8,0.2-2.9v-1.4c-0.7,1.1-1.7,1.9-2.8,2.5c-1.1,0.6-2.4,0.8-3.8,0.8
			c-1.5,0-2.8-0.3-3.9-0.8c-1.1-0.5-2-1.2-2.7-2.2c-0.7-0.9-1.3-2-1.6-3.3c-0.4-1.3-0.5-2.7-0.5-4.2c0-1.5,0.2-3,0.6-4.3
			c0.4-1.3,1-2.4,1.8-3.3s1.7-1.6,2.9-2.2c1.1-0.5,2.4-0.8,3.8-0.8c1.1,0,2.2,0.2,3.3,0.7c1.1,0.4,2.1,1.3,3,2.5v-2.5h4.4v17.7
			c0,1.8-0.2,3.3-0.5,4.7c-0.3,1.4-0.8,2.6-1.6,3.6c-0.7,1-1.7,1.7-3,2.2c-1.2,0.5-2.8,0.8-4.6,0.8c-3,0-5.3-0.5-6.8-1.6
			c-1.5-1.1-2.4-2.7-2.6-5H79.6z M89.6,19.8c0-1.3-0.2-2.4-0.5-3.2c-0.3-0.8-0.7-1.5-1.2-2c-0.5-0.5-1.1-0.8-1.7-1
			c-0.7-0.2-1.3-0.3-2-0.3c-0.7,0-1.4,0.1-2.1,0.4s-1.2,0.7-1.7,1.2c-0.5,0.5-0.9,1.2-1.1,2.1c-0.3,0.9-0.4,1.9-0.4,3.1
			c0,1.3,0.1,2.3,0.4,3.2c0.3,0.9,0.7,1.6,1.1,2.1c0.5,0.5,1,0.9,1.6,1.2c0.6,0.2,1.3,0.4,1.9,0.4c1.6,0,3-0.5,4-1.5
			c1-1,1.6-2.6,1.6-4.8V19.8z"/>
		<path fill="#2FC1B0" d="M106.8,31.7c-3.2,0-5.7-1-7.5-2.9c-1.8-1.9-2.7-4.7-2.7-8.1c0-1.7,0.2-3.2,0.7-4.6
			c0.5-1.4,1.2-2.5,2.1-3.5s2-1.7,3.3-2.2c1.3-0.5,2.7-0.8,4.3-0.8c1.6,0,3,0.3,4.3,0.8c1.3,0.5,2.3,1.2,3.2,2.2
			c0.9,0.9,1.6,2.1,2,3.5c0.5,1.4,0.7,2.9,0.7,4.6c0,1.7-0.2,3.3-0.7,4.7c-0.5,1.4-1.2,2.5-2.1,3.5c-0.9,1-2,1.7-3.2,2.2
			C109.8,31.4,108.4,31.7,106.8,31.7z M106.8,28c1.9,0,3.3-0.7,4.2-2c0.9-1.3,1.3-3.1,1.3-5.4c0-2.3-0.4-4.1-1.3-5.4s-2.3-2-4.2-2
			c-1.9,0-3.3,0.7-4.2,2c-0.9,1.3-1.4,3.1-1.4,5.3c0,2.3,0.4,4.1,1.3,5.4C103.5,27.3,104.9,28,106.8,28z"/>
		<path fill="#2FC1B0" d="M119.5,10.2h4.4v3c0.9-1.3,2-2.2,3.2-2.8c1.2-0.6,2.4-0.9,3.7-0.9c4.6,0,7,2.6,7,7.7V31h-4.6V18
			c0-1.7-0.3-2.9-0.9-3.6c-0.6-0.7-1.5-1-2.7-1c-1.4,0-2.7,0.5-3.8,1.5c-0.5,0.5-0.9,1-1.2,1.6c-0.3,0.6-0.4,1.3-0.4,2.1V31h-4.6
			V10.2z"/>
		<path fill="#2FC1B0" d="M159.2,24.9c-0.4,2.2-1.3,3.8-2.8,5c-1.5,1.2-3.6,1.8-6.3,1.8c-3.3,0-5.8-1-7.5-2.9s-2.6-4.6-2.6-8.1
			c0-1.8,0.2-3.4,0.7-4.8c0.5-1.4,1.2-2.6,2.1-3.5c0.9-0.9,2-1.7,3.2-2.2c1.2-0.5,2.6-0.7,4.1-0.7c1.6,0,3,0.2,4.2,0.7
			c1.2,0.5,2.1,1.2,2.9,2.1c0.8,0.9,1.3,2,1.7,3.2c0.4,1.2,0.6,2.6,0.6,4.1v2h-14.9c0.1,1.9,0.5,3.4,1.4,4.6
			c0.9,1.2,2.3,1.8,4.1,1.8c1.4,0,2.5-0.3,3.2-0.8c0.7-0.6,1.2-1.4,1.4-2.4H159.2z M155.1,18.6c0-1.7-0.4-3.1-1.2-4
			c-0.8-1-2.1-1.5-3.8-1.5c-1.7,0-3,0.5-3.8,1.5s-1.4,2.3-1.5,4H155.1z"/>
	</g>
	<g>
		<circle fill="#3AD8C9" cx="173.5" cy="9.6" r="9.6"/>
		<g>
			<path fill="#FFFFFF" d="M169.7,12.5c0.2,0.1,0.4,0.1,0.6,0.1c0.2,0,0.3,0,0.4-0.1c0.1-0.1,0.2-0.2,0.2-0.5v-5h1.3v5
				c0,0.6-0.1,1.1-0.4,1.3c-0.3,0.3-0.7,0.4-1.2,0.4c-0.2,0-0.3,0-0.5,0c-0.2,0-0.3-0.1-0.5-0.1L169.7,12.5z M170.8,5.1h1.4v1.2
				h-1.4V5.1z"/>
			<path fill="#FFFFFF" d="M174.3,10.3c0,0.3,0.2,0.5,0.4,0.6s0.4,0.1,0.7,0.1c0.3,0,0.5,0,0.7-0.1c0.1-0.1,0.2-0.2,0.2-0.4
				c0-0.1,0-0.2-0.1-0.3s-0.2-0.2-0.5-0.2L175,9.9c-0.6-0.1-1.1-0.3-1.4-0.5c-0.3-0.2-0.4-0.6-0.4-1.1c0-0.2,0.1-0.5,0.2-0.6
				c0.1-0.2,0.3-0.4,0.4-0.5s0.4-0.2,0.7-0.3s0.6-0.1,0.9-0.1c0.4,0,0.7,0,1,0.1s0.5,0.2,0.7,0.3c0.2,0.1,0.3,0.3,0.4,0.5
				c0.1,0.2,0.1,0.4,0.2,0.6l-1.2,0.2c-0.1-0.2-0.2-0.4-0.3-0.5c-0.1-0.1-0.4-0.2-0.7-0.2c-0.2,0-0.3,0-0.4,0s-0.2,0.1-0.3,0.1
				c-0.1,0-0.1,0.1-0.1,0.2c0,0.1,0,0.1,0,0.2c0,0.2,0,0.3,0.1,0.3s0.3,0.1,0.6,0.2l0.6,0.1c0.4,0.1,0.6,0.1,0.9,0.2
				c0.2,0.1,0.4,0.2,0.5,0.3s0.2,0.3,0.3,0.5c0.1,0.2,0.1,0.4,0.1,0.6c0,0.5-0.2,0.8-0.5,1.1c-0.4,0.3-0.9,0.4-1.7,0.4
				c-0.3,0-0.6,0-0.9-0.1s-0.5-0.1-0.7-0.3s-0.4-0.3-0.5-0.5c-0.1-0.2-0.2-0.5-0.2-0.8H174.3z"/>
		</g>
	</g>
</g>
</svg>
